<svg width="1920" height="970" viewBox="0 0 1920 970" fill="none" xmlns="http://www.w3.org/2000/svg">
<g clip-path="url(#clip0_1_2)">
<path opacity="0.8" d="M1450.41 274.64C1450.41 274.64 245.207 568.431 490.413 1136.86M490.413 1136.86C735.62 1705.29 -234.793 999.543 -469.587 1999.09C-704.38 2998.63 245.207 568.431 490.413 1136.86Z" stroke="#B66149" stroke-width="2" stroke-linecap="round"/>
<path opacity="0.8" d="M1188.82 150.667C1188.82 150.667 1021.09 -356.527 2148.82 -711.555C3276.54 -1066.58 1501.09 -787.638 3108.82 -1573.78C4716.54 -2359.92 1981.09 -1218.75 4068.82 -2436" stroke="black" stroke-width="2" stroke-linecap="round"/>
<path opacity="0.8" d="M970.852 78.2223C970.852 78.2223 179.975 200.749 107 726.5C34.0248 1252.25 563.828 -16.4173 970.852 78.2223ZM970.852 78.2223C1377.88 172.862 1043.83 -447.528 1930.85 -784" stroke="black" stroke-width="2" stroke-linecap="round"/>
<path opacity="0.8" d="M1603.31 102.062C1603.31 102.062 1281.65 -380.08 2563.31 -760.16C3844.96 -1140.24 801.653 51.0311 1603.31 102.062ZM1603.31 102.062C2404.96 153.093 321.653 482.142 643.306 964.285" stroke="#B66149" stroke-width="2" stroke-linecap="round"/>
<path opacity="0.8" d="M1564.05 291.342C1564.05 291.342 1262.02 -285.44 2524.05 -570.881C3786.07 -856.321 1742.02 -716.551 3484.05 -1433.1C5226.07 -2149.65 2222.02 -1147.66 4444.05 -2295.33" stroke="black" stroke-width="2" stroke-linecap="round"/>
<path opacity="0.8" d="M1603.31 1072.06C1603.31 1072.06 1281.65 589.92 2563.31 209.84C3844.96 -170.24 801.653 1021.03 1603.31 1072.06ZM1603.31 1072.06C2404.96 1123.09 321.653 1452.14 643.306 1934.28" stroke="#B66149" stroke-width="2" stroke-linecap="round"/>
<path opacity="0.8" d="M1358.25 868.363C1358.25 868.363 -115.608 907.888 232.649 1499.27C580.906 2090.65 447.193 592.434 1358.25 868.363ZM1358.25 868.363C2269.31 1144.29 1009.99 276.98 2483.86 237.455" stroke="#787878" stroke-width="2" stroke-linecap="round"/>
<path opacity="0.8" d="M1262.49 790.001C1262.49 790.001 315.382 830.868 346.194 1698.53C377.005 2566.19 -142.768 1285.13 -570.107 2607.05C-997.445 3928.98 -600.919 1739.39 -1486.41 3515.58" stroke="#787878" stroke-width="2" stroke-linecap="round"/>
<path opacity="0.8" d="M153.57 586.394C153.57 586.394 577.785 -137.914 1113.57 -275.828M153.57 586.394C97.7851 293.197 1649.36 -413.742 1113.57 -275.828M153.57 586.394C209.355 879.591 577.785 -137.914 1113.57 -275.828" stroke="#7B7B7B" stroke-width="2" stroke-linecap="round"/>
<path opacity="0.8" d="M921.261 358.496C921.261 358.496 424.538 38.9973 544.34 -875.586M544.34 -875.586C664.142 -1790.17 236.078 -578.044 167.419 -2109.67C98.7614 -3641.29 424.538 38.9973 544.34 -875.586Z" stroke="#B66149" stroke-width="2" stroke-linecap="round"/>
<path opacity="0.8" d="M1694.5 411C1694.5 411 1347.67 -218.636 2692.34 -437.272C4037.01 -655.908 829.831 198.525 1694.5 411ZM1694.5 411C2559.17 623.475 387.669 643.586 772.339 1287.17" stroke="#787878" stroke-width="2" stroke-linecap="round"/>
<path opacity="0.8" d="M452.191 254.202C452.191 254.202 389.919 -349.025 803.925 -987.293C1217.93 -1625.56 214.052 271.723 452.191 254.202ZM452.191 254.202C690.33 236.681 375.228 869.273 437.5 1472.5" stroke="#B66149" stroke-width="2" stroke-linecap="round"/>
<path opacity="0.8" d="M1582.65 1190.67C1582.65 1190.67 1280.62 613.885 2542.65 328.445C3804.67 43.0043 1760.62 182.774 3502.65 -533.778C5244.67 -1250.33 2240.62 -248.337 4462.65 -1396" stroke="black" stroke-width="2" stroke-linecap="round"/>
<path opacity="0.8" d="M1729.34 1394.95C1729.34 1394.95 1466.5 359.5 2689.34 532.728C4034.01 314.092 864.669 1182.48 1729.34 1394.95ZM1729.34 1394.95C2594.01 1607.43 384.669 1613.59 769.339 2257.17" stroke="#787878" stroke-width="2" stroke-linecap="round"/>
<path opacity="0.8" d="M-217 415.5C-217 415.5 -575.331 -238.636 769.339 -457.272C2114.01 -675.908 -1081.67 203.025 -217 415.5ZM-217 415.5C238.5 638 -1535.33 623.586 -1150.66 1267.17" stroke="#787878" stroke-width="2" stroke-linecap="round"/>
<path opacity="0.8" d="M-316.694 1072.06C-316.694 1072.06 -638.347 589.92 643.306 209.84C1924.96 -170.24 -1118.35 1021.03 -316.694 1072.06ZM-316.694 1072.06C484.959 1123.09 -1598.35 1452.14 -1276.69 1934.28" stroke="#B66149" stroke-width="2" stroke-linecap="round"/>
<path opacity="0.8" d="M-337.353 1190.67C-337.353 1190.67 -639.378 613.885 622.647 328.445C1884.67 43.0043 -159.378 182.774 1582.65 -533.778C3324.67 -1250.33 320.622 -248.337 2542.65 -1396" stroke="black" stroke-width="2" stroke-linecap="round"/>
<path opacity="0.8" d="M-562.748 868.363C-562.748 868.363 -2036.61 907.888 -1688.35 1499.27C-1340.09 2090.65 -1473.81 592.434 -562.748 868.363ZM-562.748 868.363C348.311 1144.29 -911.005 276.98 562.855 237.455" stroke="black" stroke-width="2" stroke-linecap="round"/>
<path opacity="0.8" d="M950.5 1044.5C950.5 1044.5 27.4752 1242.75 -45.5 1768.5C-118.475 2294.25 543.475 949.86 950.5 1044.5ZM950.5 1044.5C1357.52 1139.14 1032.98 670.472 1920 334" stroke="black" stroke-width="2" stroke-linecap="round"/>
</g>
<defs>
<clipPath id="clip0_1_2">
<rect width="1920" height="970" fill="white"/>
</clipPath>
</defs>
</svg>
