<svg width="26" height="26" viewBox="0 0 26 26" fill="none" xmlns="http://www.w3.org/2000/svg">
<g clip-path="url(#clip0_3_55)">
<path fill-rule="evenodd" clip-rule="evenodd" d="M13.0003 0.541687C9.91411 0.543288 6.92913 1.63635 4.5791 3.62542C2.22906 5.61449 0.667218 8.36986 0.17283 11.3989C-0.321559 14.4278 0.283744 17.5329 1.88052 20.1589C3.47729 22.7848 5.9614 24.7604 8.88866 25.7324C9.53446 25.8523 9.77772 25.452 9.77772 25.1117C9.77772 24.7714 9.7648 23.7846 9.76049 22.7058C6.144 23.4871 5.37981 21.1797 5.37981 21.1797C4.78997 19.6814 3.93751 19.2876 3.93751 19.2876C2.75785 18.4871 4.02578 18.502 4.02578 18.502C5.33245 18.5941 6.01916 19.8355 6.01916 19.8355C7.1773 21.8111 9.06087 21.2396 9.80139 20.9057C9.91764 20.0688 10.2556 19.4995 10.628 19.1763C7.73914 18.8509 4.70386 17.7422 4.70386 12.7892C4.68596 11.5047 5.16535 10.2625 6.04283 9.31959C5.90937 8.99425 5.46376 7.68002 6.16983 5.8949C6.16983 5.8949 7.26125 5.54815 9.74544 7.21983C11.8762 6.64045 14.1243 6.64045 16.2551 7.21983C18.7372 5.54815 19.8264 5.8949 19.8264 5.8949C20.5346 7.67574 20.089 8.98997 19.9556 9.31959C20.8358 10.2626 21.3162 11.507 21.2967 12.7935C21.2967 17.7572 18.2549 18.8509 15.3618 19.1698C15.8267 19.5723 16.2422 20.3578 16.2422 21.565C16.2422 23.2945 16.2271 24.6857 16.2271 25.1117C16.2271 25.4563 16.4618 25.8587 17.1205 25.7324C20.0481 24.7603 22.5325 22.7844 24.1292 20.158C25.7259 17.5316 26.3309 14.426 25.836 11.3967C25.341 8.36747 23.7784 5.61207 21.4276 3.62334C19.0768 1.63461 16.0911 0.542273 13.0046 0.541687H13.0003Z"/>
<path d="M8.69681 21.6399C8.69681 21.7448 8.57627 21.8347 8.42127 21.8368C8.26628 21.8389 8.13927 21.7533 8.13927 21.6484C8.13927 21.5436 8.25982 21.4537 8.41481 21.4515C8.5698 21.4494 8.69681 21.5329 8.69681 21.6399Z" fill="white"/>
<path d="M9.68704 21.475C9.70642 21.5799 9.59878 21.6891 9.44379 21.7148C9.2888 21.7404 9.15318 21.6784 9.1338 21.5756C9.11443 21.4729 9.22637 21.3616 9.37706 21.3338C9.52775 21.3059 9.66767 21.3702 9.68704 21.475Z" fill="white"/>
<path d="M7.63335 21.5671C7.60106 21.6677 7.45468 21.7127 7.30829 21.6699C7.16191 21.627 7.06504 21.5072 7.09303 21.4044C7.12101 21.3017 7.26955 21.2546 7.41808 21.3017C7.56662 21.3488 7.66133 21.4622 7.63335 21.5671Z" fill="white"/>
<path d="M6.65822 21.1476C6.58718 21.2268 6.44295 21.2053 6.32456 21.0983C6.20616 20.9913 6.17817 20.8458 6.24921 20.7687C6.32024 20.6916 6.46447 20.7131 6.58718 20.8179C6.70988 20.9228 6.73356 21.0705 6.65822 21.1476Z" fill="white"/>
<path d="M5.96293 20.4284C5.88328 20.484 5.74765 20.4284 5.67231 20.3171C5.65147 20.2971 5.63491 20.2732 5.62359 20.2467C5.61227 20.2202 5.60643 20.1917 5.60643 20.163C5.60643 20.1342 5.61227 20.1057 5.62359 20.0792C5.63491 20.0528 5.65147 20.0288 5.67231 20.0089C5.75196 19.9554 5.88758 20.0089 5.96293 20.118C6.03827 20.2272 6.04042 20.3727 5.96293 20.4284Z" fill="white"/>
<path d="M5.45055 19.6857C5.40597 19.708 5.35497 19.7143 5.30628 19.7033C5.25758 19.6924 5.21423 19.665 5.18362 19.6258C5.09967 19.5359 5.08244 19.4117 5.14702 19.3561C5.2116 19.3004 5.32785 19.3261 5.41181 19.416C5.49576 19.5059 5.51513 19.63 5.45055 19.6857Z" fill="white"/>
<path d="M4.92313 19.1013C4.89514 19.1655 4.79182 19.1848 4.70786 19.1398C4.62391 19.0949 4.56148 19.0114 4.59162 18.9451C4.62176 18.8787 4.72294 18.8616 4.80689 18.9065C4.89084 18.9515 4.95542 19.0371 4.92313 19.1013Z" fill="white"/>
</g>
<defs>
<clipPath id="clip0_3_55">
<rect width="26" height="26" fill="white"/>
</clipPath>
</defs>
</svg>
