<svg xmlns="http://www.w3.org/2000/svg" xml:space="preserve" style="enable-background:new 0 0 64 64" viewBox="0 0 64 64"><style>.st0{display:none}.st2{display:inline}.st3,.st4,.st5,.st6,.st8{fill:none;stroke-width:2;stroke-miterlimit:10}.st4{display:inline}.st5,.st6,.st8{stroke-dasharray:1.9857,1.9857}.st6,.st8{display:inline;stroke-dasharray:2}.st8{stroke-dasharray:3}.st10{fill:none}.st11{font-family:&quot;Montserrat-Bold&quot;}.st12{font-size:7px}</style><g id="icons"><g id="XMLID_132_"><g id="XMLID_113_"><circle id="XMLID_105_" cx="32.1" cy="18.4" r="3.6" class="st3"/><path id="XMLID_108_" d="M30.6 15.4V9.7c0-.1.1-.1.1-.1h2.7c.1 0 .1.1.1.1v5.7" class="st3"/><path id="XMLID_106_" d="m12.2 54.3-.5-4.6 16.9-29.2 3.4 2L23.6 37l-1.9 1.3-9.3 16c0 .1-.1.1-.2 0z" class="st3"/><path id="XMLID_110_" d="m51.8 54.3.5-4.6-16.9-29.2-3.4 2L40.4 37l1.9 1.3 9.3 16c0 .1.1.1.2 0z" class="st3"/><path id="XMLID_112_" d="M24.4 34.5h15.2" class="st3"/><path id="XMLID_109_" d="M19.8 34.5H15" class="st3"/><path id="XMLID_114_" d="M15 31.7v5.6" class="st3"/><path id="XMLID_117_" d="M31.1 18.4h2.3" class="st3"/></g><path id="XMLID_118_" d="M21 44.3h22.3" class="st5"/></g></g></svg>